<svg xmlns="http://www.w3.org/2000/svg" width="327" height="116.748" viewBox="0 0 327 116.748">
  <path id="Path_3" data-name="Path 3" d="M327,97.244v1.095a9.693,9.693,0,0,1-3.176-.264,76.1,76.1,0,0,0-48.392,6.715c-20.343,10.032-41.986,6.5-61.787-2.564-7.93,2.9-15.305,5.4-23.245,7.527a117.65,117.65,0,0,1-19.907,3.652,73.77,73.77,0,0,1-21.952-.837,67.89,67.89,0,0,1-49.528,3.31c-7.3-2.3-13.9-5.136-20.931-8.1-18-7.57-31.791-12.269-51.309-6.632A231.077,231.077,0,0,1,0,107.5V106a272,272,0,0,0,27.37-6.5c29.04-8.311,48.222,8.071,73.759,15.474a63.948,63.948,0,0,0,44.3-2.859c-7.473-2.5-13.926-4.508-20.156-8.565A106.256,106.256,0,0,1,91.361,68.347C83.483,54.88,81.5,36.192,89.354,22.83a25.612,25.612,0,0,1,21.281-13c12.965-.524,26.447,7.46,30.463,21,4.853-12.991,16.444-28.689,31.422-28.515a26.318,26.318,0,0,1,20.29,10.34c7.067,8.956,8.1,19.1,6.538,30.329,9.5-.322,15.061,6.767,19.759,14.447,2.642-4.424,5.375-8.062,9.292-10.98A13.758,13.758,0,0,1,247.517,48.5c4.447,5.22,5.744,12.1,4.273,18.924-3.99,18.051-19.423,27.327-35.869,34.075,18.282,8.345,39.83,11.666,57.775,2.329,17.877-8.2,34.229-10.925,53.3-6.585m-208.921-.581a67.437,67.437,0,0,0,30.369,14.267c16.367-7.79,29.142-21.043,37.666-36.8-2.02-5.186-3.436-10.162-2.852-15.476.88-8,6.219-14.237,14.361-15.6,2.91-13.4-1.055-27.937-12.739-35.522C172.388-.581,159,5.519,150.7,16.313a54.9,54.9,0,0,0-9.208,18.743c-.138.489-.436.846-.718.883-.247.033-.957-.211-.965-.672-.223-13.119-12.608-22.5-24.755-23.877A24.954,24.954,0,0,0,89.34,25.968c-6.682,14.4-3.6,31.924,5.2,44.987a120.2,120.2,0,0,0,23.536,25.708M243.992,47.274c-4.618-3.459-10.07-2.845-14.465.207-8.611,5.98-9.341,15.4-11.381,11.5-3.818-7.3-9.669-15.4-19.081-14.509a111.889,111.889,0,0,1-11.153,29.787c5.236,13.078,12.978,20.128,25.847,26.33,17.272-5.786,37.385-18.921,37.137-39.406a17.4,17.4,0,0,0-6.9-13.913M187.331,72.055c4.608-9.1,8.186-17.584,9.944-27.224-6.481.929-10.784,6.011-12.065,12a23.272,23.272,0,0,0,2.121,15.225m24.4,29.218c-12.885-7.336-18.339-11.478-24.84-25.048C178.051,91.3,166.67,103.246,151.331,111.3c18.848,3.945,43.145-3.428,60.4-10.027" transform="translate(0 -2.316)" fill="#caa3a0"/>
</svg>
